<?xml version="1.0" encoding="utf-8"?>
<!-- Generator: Adobe Illustrator 25.2.3, SVG Export Plug-In . SVG Version: 6.00 Build 0)  -->
<svg version="1.1" id="Layer_1" xmlns="http://www.w3.org/2000/svg" xmlns:xlink="http://www.w3.org/1999/xlink" x="0px" y="0px"
	 viewBox="0 0 400 400" style="enable-background:new 0 0 400 400;" xml:space="preserve">
<style type="text/css">
	.st0{fill:#010202;}
</style>
<g>
	<g>
		<path class="st0" d="M129.54,230.04l-6.31,0.59c-2.28,0.21-4.15,1.87-4.15,3.67v24.49c0,1.81,1.87,3.29,4.15,3.29h6.31
			c2.28,0,4.09-1.55,4.09-3.43V253l-4.27,0.11v6.06l-6.03,0.06v-25.74l6.03-0.51v5.44l4.27-0.29v-5.02
			C133.64,231.21,131.82,229.84,129.54,230.04z"/>
		<polygon class="st0" points="152.8,261.78 152.8,228.19 148.54,228.59 148.54,243.34 141.99,243.68 141.99,229.19 137.73,229.58 
			137.73,261.79 141.99,261.78 141.99,246.7 148.54,246.42 148.54,261.78 		"/>
		<path class="st0" d="M161.98,247.93l3.39-0.13l2.86,13.96l4.44,0l-3.15-14.54c1.34-0.7,2.28-2.02,2.28-3.52v-13.45
			c0-2.09-1.87-3.63-4.15-3.42l-9.94,0.91v34.03l4.27,0V247.93z M161.98,230.59l5.55-0.46v14.52l-5.55,0.25V230.59z"/>
		<polygon class="st0" points="180.56,225.64 176.29,226.03 176.29,261.76 180.56,261.75 		"/>
		<path class="st0" d="M184.65,253v5.15c0,2.15,1.87,3.93,4.16,3.93h5.26c2.34,0,4.15-1.84,4.15-4.07v-6.81c0,0,0.06-1.26-0.77-2.6
			l-8.53-13.83v-6.83l5.02-0.42v5.84l4.27-0.3v-5.32c0-2.23-1.82-3.89-4.15-3.68l-5.26,0.49c-2.28,0.21-4.16,2.16-4.16,4.32v5.81
			c0,0,0,1.33,0.82,2.55l8.47,13.75v7.65l-5.02,0.04v-5.77L184.65,253z"/>
		<polygon class="st0" points="200.84,227.34 205.47,226.96 205.47,261.73 209.78,261.72 209.78,226.6 214.41,226.21 214.41,222.52 
			200.84,223.77 		"/>
		<path class="st0" d="M217.73,222.22v39.5l4.27,0v-36.14l6.03-0.5v36.64h4.26v-36.99l6.02-0.5v37.49l4.27,0v-37.27
			c0-2.48-1.86-4.33-4.14-4.12l-3.74,0.34c-2.05,0.19-3.1,0.97-3.68,2.63c-0.52-1.13-1.57-2.14-3.68-1.95l-1.34,0.12
			c-2.05,0.19-3.45,0.99-3.98,2.61v-2.24L217.73,222.22z"/>
		<path class="st0" d="M247.24,224.05v37.65l4.27,0v-17.12l5.84-0.22v17.34l4.32,0v-38.83c0-2.57-1.86-4.52-4.14-4.3l-6.13,0.56
			C249.12,219.33,247.24,221.55,247.24,224.05z M251.51,223.05l5.84-0.49v17.8l-5.84,0.27V223.05z"/>
		<path class="st0" d="M279.44,249.07c0,0,0.06-1.51-0.76-3.13l-8.53-16.65v-8.2l5.02-0.42v7l4.27-0.3v-6.37
			c0-2.67-1.81-4.69-4.14-4.47l-5.26,0.49c-2.28,0.21-4.15,2.52-4.15,5.12v6.99c0,0,0,1.6,0.82,3.08l8.47,16.58v9.16l-5.02,0.04
			v-6.92l-4.27,0.1v6.2c0,2.6,1.87,4.73,4.15,4.73h5.26c2.34,0,4.14-2.19,4.14-4.87L279.44,249.07L279.44,249.07z"/>
		<path class="st0" d="M94.41,224.78c-0.29,0.29-0.46,0.69-0.46,1.1c0,0.4,0.17,0.8,0.46,1.09c0.29,0.29,0.69,0.46,1.09,0.46
			c0.42,0,0.81-0.16,1.11-0.46c0.27-0.3,0.44-0.69,0.44-1.09c0-0.41-0.17-0.81-0.45-1.11C96.03,224.21,94.98,224.21,94.41,224.78z"
			/>
		<path class="st0" d="M121.28,221.58c-0.84,0.09-1.47,0.86-1.38,1.7c0.09,0.8,0.76,1.39,1.54,1.39c0.05,0,0.1,0,0.16-0.01
			c0.84-0.08,1.47-0.84,1.37-1.7C122.9,222.11,122.13,221.49,121.28,221.58z"/>
		<path class="st0" d="M135.96,221.58c-0.09-0.84-0.85-1.46-1.7-1.37c-0.84,0.09-1.46,0.85-1.37,1.7c0.09,0.8,0.76,1.39,1.54,1.39
			c0.05,0,0.11,0,0.16-0.01C135.43,223.2,136.05,222.44,135.96,221.58z"/>
		<path class="st0" d="M147.39,221.92c0.05,0,0.1-0.01,0.16-0.01c0.85-0.09,1.45-0.85,1.38-1.7c-0.1-0.86-0.86-1.46-1.71-1.38
			c-0.84,0.09-1.46,0.85-1.38,1.7C145.94,221.34,146.61,221.92,147.39,221.92z"/>
		<path class="st0" d="M174.86,217.46c-0.08-0.85-0.85-1.47-1.7-1.37c-0.85,0.09-1.47,0.85-1.38,1.7c0.08,0.8,0.76,1.38,1.53,1.38
			c0.05,0,0.11,0,0.17-0.01C174.35,219.08,174.95,218.31,174.86,217.46z"/>
		<path class="st0" d="M186.3,217.8c0.05,0,0.11,0,0.16-0.01c0.84-0.09,1.46-0.85,1.37-1.7c-0.08-0.85-0.85-1.47-1.71-1.38
			c-0.85,0.09-1.46,0.84-1.37,1.69C184.84,217.21,185.51,217.8,186.3,217.8z"/>
		<path class="st0" d="M199.26,216.43c0.06,0,0.11-0.01,0.17-0.01c0.84-0.09,1.47-0.86,1.37-1.7c-0.09-0.86-0.84-1.47-1.7-1.38
			c-0.85,0.1-1.46,0.86-1.37,1.71C197.81,215.84,198.48,216.43,199.26,216.43z"/>
		<path class="st0" d="M212.23,215.05c0.06,0,0.11,0,0.17,0c0.86-0.09,1.47-0.86,1.38-1.72c-0.09-0.84-0.85-1.46-1.7-1.37
			c-0.84,0.09-1.47,0.86-1.39,1.7C210.78,214.46,211.46,215.05,212.23,215.05z"/>
		<path class="st0" d="M225.2,213.67c0.06,0,0.11,0,0.16-0.01c0.86-0.09,1.48-0.85,1.39-1.7c-0.09-0.85-0.86-1.46-1.7-1.37
			c-0.86,0.1-1.46,0.86-1.38,1.7C223.75,213.08,224.43,213.67,225.2,213.67z"/>
		<path class="st0" d="M238.18,212.3c0.06,0,0.11,0,0.16-0.01c0.85-0.09,1.46-0.86,1.38-1.7c-0.09-0.85-0.86-1.47-1.71-1.37
			c-0.85,0.09-1.46,0.85-1.36,1.69C236.72,211.71,237.39,212.3,238.18,212.3z"/>
		<path class="st0" d="M251.15,210.93c0.06,0,0.11-0.01,0.16-0.01c0.85-0.09,1.46-0.86,1.38-1.7c-0.09-0.86-0.86-1.46-1.71-1.38
			c-0.86,0.09-1.46,0.85-1.38,1.7C249.69,210.33,250.36,210.93,251.15,210.93z"/>
		<path class="st0" d="M290.05,206.8c0.05,0,0.1,0,0.17,0c0.84-0.1,1.46-0.86,1.37-1.71c-0.09-0.84-0.85-1.46-1.71-1.37
			c-0.84,0.1-1.46,0.85-1.37,1.7C288.59,206.21,289.27,206.8,290.05,206.8z"/>
		<path class="st0" d="M301.93,202.78c-0.29,0.29-0.45,0.68-0.45,1.09c0,0.4,0.16,0.79,0.45,1.09c0.3,0.29,0.69,0.45,1.1,0.45
			c0.4,0,0.81-0.16,1.09-0.45c0.28-0.29,0.45-0.69,0.45-1.09c0-0.41-0.17-0.82-0.45-1.09C303.54,202.21,302.49,202.21,301.93,202.78
			z"/>
		<path class="st0" d="M286.02,240.85c-0.82,0.23-1.31,1.09-1.07,1.91c0.18,0.68,0.82,1.12,1.48,1.12c0.14,0,0.28-0.01,0.43-0.05
			c0.82-0.24,1.29-1.08,1.07-1.91C287.69,241.1,286.84,240.62,286.02,240.85z"/>
		<path class="st0" d="M291.5,228.02c-0.76-0.37-1.69-0.04-2.06,0.74c-0.36,0.77-0.04,1.69,0.73,2.06c0.22,0.1,0.45,0.15,0.67,0.15
			c0.58,0,1.13-0.33,1.4-0.89C292.6,229.31,292.27,228.39,291.5,228.02z"/>
		<path class="st0" d="M289.84,254.47c-0.82,0.23-1.3,1.09-1.07,1.91c0.19,0.68,0.81,1.14,1.49,1.14c0.15,0,0.28-0.02,0.42-0.06
			c0.83-0.22,1.3-1.08,1.07-1.91C291.53,254.72,290.68,254.24,289.84,254.47z"/>
		<path class="st0" d="M297.6,215.25c-0.78-0.36-1.7-0.04-2.06,0.73c-0.37,0.77-0.05,1.69,0.73,2.06c0.22,0.11,0.45,0.15,0.66,0.15
			c0.57,0,1.13-0.32,1.39-0.88C298.69,216.54,298.37,215.62,297.6,215.25z"/>
		<path class="st0" d="M293.01,268.49c-0.29,0.29-0.46,0.69-0.46,1.1c0,0.41,0.16,0.8,0.46,1.09c0.28,0.29,0.68,0.45,1.09,0.45
			c0.4,0,0.81-0.16,1.1-0.45c0.28-0.29,0.45-0.69,0.45-1.09c0-0.4-0.17-0.81-0.45-1.1C294.61,267.92,293.56,267.92,293.01,268.49z"
			/>
		<path class="st0" d="M226.5,268.07c-0.85,0-1.56,0.7-1.54,1.56c0,0.86,0.7,1.54,1.54,1.54c0.85,0,1.55-0.69,1.55-1.54
			C228.05,268.77,227.35,268.07,226.5,268.07z"/>
		<path class="st0" d="M251.99,269.61c0,0.86,0.7,1.55,1.56,1.55c0.85,0,1.54-0.69,1.54-1.55c0-0.85-0.7-1.55-1.55-1.55
			C252.68,268.06,251.99,268.75,251.99,269.61z"/>
		<path class="st0" d="M280.57,268.05c-0.85,0-1.53,0.69-1.53,1.55c0,0.86,0.68,1.55,1.53,1.55c0.86,0,1.55-0.69,1.55-1.55
			C282.12,268.74,281.42,268.05,280.57,268.05z"/>
		<path class="st0" d="M238.47,269.62c0,0.85,0.7,1.55,1.54,1.55c0.86,0,1.55-0.7,1.55-1.55c0-0.86-0.68-1.55-1.55-1.55
			C239.16,268.07,238.47,268.76,238.47,269.62z"/>
		<path class="st0" d="M267.06,268.05c-0.86,0-1.56,0.7-1.55,1.56c0,0.85,0.69,1.54,1.55,1.54c0.85,0,1.55-0.69,1.53-1.55
			C268.59,268.74,267.91,268.05,267.06,268.05z"/>
		<path class="st0" d="M212.97,268.08c-0.85,0-1.54,0.69-1.54,1.55c0,0.86,0.7,1.54,1.54,1.54c0.86,0,1.56-0.69,1.56-1.54
			C214.53,268.77,213.84,268.08,212.97,268.08z"/>
		<path class="st0" d="M131.87,268.13c-0.86,0-1.55,0.69-1.55,1.55c0,0.84,0.69,1.53,1.55,1.53c0.86,0,1.55-0.69,1.55-1.53
			C133.42,268.83,132.73,268.12,131.87,268.13z"/>
		<path class="st0" d="M118.36,268.13c-0.86,0-1.55,0.69-1.55,1.55c0,0.85,0.69,1.55,1.55,1.55c0.85,0,1.54-0.69,1.54-1.55
			C119.9,268.83,119.21,268.13,118.36,268.13z"/>
		<path class="st0" d="M143.84,269.67c0,0.86,0.69,1.55,1.55,1.55c0.86,0,1.55-0.7,1.55-1.55c0-0.85-0.69-1.55-1.55-1.55
			C144.53,268.12,143.84,268.82,143.84,269.67z"/>
		<path class="st0" d="M172.43,271.2c0.85,0,1.54-0.69,1.54-1.55c0-0.86-0.69-1.55-1.54-1.55c-0.86,0-1.55,0.7-1.55,1.55
			C170.88,270.51,171.57,271.2,172.43,271.2z"/>
		<path class="st0" d="M199.46,268.09c-0.86,0-1.55,0.69-1.55,1.55s0.71,1.55,1.55,1.55c0.86,0,1.55-0.69,1.55-1.55
			C201.01,268.78,200.32,268.09,199.46,268.09z"/>
		<path class="st0" d="M157.36,269.66c0,0.86,0.7,1.55,1.55,1.55c0.85,0,1.55-0.69,1.55-1.55c0-0.86-0.69-1.55-1.55-1.55
			C158.05,268.11,157.36,268.8,157.36,269.66z"/>
		<path class="st0" d="M185.95,271.2c0.85,0,1.54-0.7,1.54-1.55c0-0.86-0.69-1.55-1.54-1.55c-0.86,0-1.55,0.7-1.55,1.55
			C184.4,270.5,185.09,271.2,185.95,271.2z"/>
		<path class="st0" d="M103.74,268.6c-0.29,0.29-0.45,0.68-0.45,1.09s0.17,0.81,0.45,1.09c0.29,0.29,0.68,0.46,1.09,0.46
			c0.41,0,0.81-0.16,1.1-0.46c0.29-0.28,0.45-0.69,0.45-1.09c0-0.41-0.16-0.8-0.45-1.09C105.35,268.02,104.31,268.02,103.74,268.6z"
			/>
		<path class="st0" d="M109.12,257c-0.8-0.28-1.68,0.17-1.96,0.97c-0.27,0.8,0.16,1.68,0.97,1.96c0.17,0.05,0.33,0.08,0.5,0.08
			c0.65,0,1.25-0.41,1.46-1.06C110.37,258.15,109.94,257.27,109.12,257z"/>
		<path class="st0" d="M111.33,246.15c-0.3,0.29-0.46,0.69-0.46,1.09c0,0.41,0.16,0.8,0.46,1.09c0.28,0.29,0.69,0.46,1.09,0.46
			c0.41,0,0.81-0.17,1.1-0.46c0.29-0.29,0.45-0.69,0.45-1.09c0-0.4-0.17-0.81-0.45-1.09C112.94,245.57,111.9,245.57,111.33,246.15z"
			/>
		<path class="st0" d="M104.93,237.77c0.67-0.53,0.78-1.49,0.25-2.17c-0.53-0.67-1.51-0.79-2.17-0.26
			c-0.68,0.54-0.78,1.51-0.26,2.18c0.32,0.38,0.76,0.58,1.22,0.58C104.3,238.1,104.64,237.99,104.93,237.77z"/>
		<path class="st0" d="M119.07,212.11l1.35-1.64l0.08-0.53l0.59-2.36v-1.18l0.21-0.17l0.21-1.28l0.32-0.41l0.11-0.9l0.15-0.02
			l0.11-0.24l0.09-1.12l0.31-0.41l-0.06-0.51l0.58-1.32l0.18-2.16l0.47-0.95l0.51-1.9l0.57-1.91l0.34-2.04l0.38-1.07l0.75-2.23
			l0.39-2.26l0.2-0.18l0.37-1.81l0.1-1.05l0.64-2l0.56-2.06l0.39-0.42l0.08-1.11l0.31-1.66l0.38-1.08l0.01-0.52l0.22-0.03
			l-0.08-0.65l0.3-0.55l0.24-1.06l0.55-2.13l0.28-0.11l0.06-0.67l0.47-0.43l-0.04-0.29l0.9-1.07l1.48-1.74l1.65-1.6l0.43-0.13
			l-0.03-0.22l0.29-0.04l0.11-0.31l0.37-0.05l-0.03-0.22l0.28-0.03l-0.02-0.15l2.72-1.3l1.8-0.37l1.06,0.24l0.63,0.95l0.31,1.29
			l-0.1,1.05l-0.59,2.36l-0.45,2.27l-0.76,2.31l-0.06,0.74l-0.57,1.92l-0.77,2.16l-0.6,2.28l-0.24,2.25l-0.31,0.55l-0.23,1.06
			l-0.69,2.15l-0.69,2.23l-0.44,1.82l-0.39,2.19l-0.15,0.01l0.03,0.29l-0.14,0.02l0.05,0.36l-0.15,0.02l0.04,0.29l-0.22,0.02
			l0.05,0.37l-0.27,0.18v0.59l-0.26,0.25l0.06,0.51l-0.39,1.67l-0.62,2.14l-0.38,0.49l-0.28,1.95l-0.61,2.21l-0.2,0.17l-0.16,0.46
			l-0.54,2.28l-0.09,1.04l-0.2,0.17l-0.23,1.72l-0.14,0.1l-0.19,0.83l0.03,0.81l0.55,0.89l0.93,0.33l1.24-0.08l2.83-0.35l2.01-0.47
			l1.09-1.31l0.51-1.83l0.47-2.2l0.38-1.15l0.01-0.45l0.15-0.02l0.02-0.45l0.38-2.26l0.19-0.25l0.02-0.44l0.22-0.54l0.2-0.17
			l-0.04-0.88l0.31-0.48l-0.06-0.5l0.32-0.41l0.05-0.81l0.14-0.02l-0.03-0.29l0.6-1.7l0.18-0.98l0.36-0.64l0.21-1.94l0.52-1.1
			l0.47-1.6l-0.07-0.58l0.31-0.48l-0.06-0.51l0.33-0.33l0.28-1.88l-0.07-0.58l0.46-1.09l0.62-2.14l0.32-0.41l0.27-0.91l0.39-2.19
			l0.19-0.24l0.23-1.14l0.53-2.28l0.3-1.73l0.32-0.41l0.22-0.61l-0.05-0.44l0.31-0.41l0.05-0.82l0.18-0.32l0.22-1.21l0.61-0.96
			l0.15-0.61l0.77-0.9l1.56-1.74l0.48-0.28l-0.02-0.15l0.43-0.13l1.18-1.18l1.9-1.34l1.04-0.49l2.29-0.58l1.12,0.16l0.84,0.85
			l0.16,0.72l-0.35,2.55l-0.46,2.2l-0.39,1.59l-0.09,1.04l-0.2,0.17l-0.44,2.42l-0.4,0.93l-0.65,1.92l-0.61,2.22l-0.66,2.37
			l-0.64,2.07l-0.51,2.42l-0.55,2.13l-0.58,1.92l-0.08,1.12l-0.18,0.32l-0.73,1.93l-0.07,0.67l-0.17,0.39l-0.54,2.27l-0.54,2.21
			l-0.14,0.02l0.02,0.15l-0.47,2.19l-0.44,1.83l-0.68,1.63l-0.45,2.27l-0.26,2.17l-0.48,0.94l-0.36,1.22l-0.09,2.29l-0.01,2.29
			l0.44,1.79l0.91,2.03l1.13,2l0.24,0.12l0.05,0.36l1.32,1.16l0.29-0.04l0.9,0.77l0.46,0.17l0.49,0.38l1.91,1.17l0.76,0.13L161,222
			l1.02-0.12l0.46-0.43l0.63-0.89l0.31-1.07l0.35-1.96l0.38-1.15l0.02-1.03l-0.28-0.48l-0.41-0.32l-0.13-0.5l-0.46-0.17l-0.42-0.39
			l-1.55-1.8l-0.65-2.28l0.14-2.45l0.31-1.15l0.39-2.19l0.31-0.48l0.49-1.98l0.43-1.97l0.31-0.41l-0.04-0.29l0.44-1.9l0.19-0.25
			l0.46-2.19l0.32-0.41l0.19-0.84l0.2-0.17l-0.02-0.15l0.24-2.24l0.35-0.71l0.05-0.81l0.22-0.03l-0.05-0.36l0.15-0.02l0.05-0.81
			l0.12-0.17l-0.06-0.5l0.2-0.17l0.26-1.58l0.2-0.17l0.43-1.9l0.15-0.02l-0.04-0.29l0.15-0.02l0.01-0.52l0.27-0.18l-0.05-0.37
			l0.15-0.02l-0.05-0.36l0.14-0.02l0.32-1.07l0.3-2.32l0.85-2.09l0.23-1.13l0.6-2.29l0.01-0.59l0.28-1.29l0.87-1.95l0.22-1.21
			l0.46-2.2l0.48-1.53l0.45-2.26l0.22-0.03l0.04-0.82l0.3-1.14l-0.01-1.25l0.09-2.23l0.2-0.17l-0.73-1.76l-0.65-2.28l-0.31-0.11
			l-0.04-0.29l-1.8-1.4l-0.54-0.23l-2.28-0.53l-0.16-0.13l-1.83,0.15l-2.15,0.48l-2.11,0.85l-0.41,0.34l-1.61,0.72l-0.11,0.31
			l-0.49,0.21l-0.86,0.84l-0.31,0.48l-0.49,0.2l-0.25,0.4l-1.02,0.72l-0.3,0.48l-0.28,0.11l-0.72,0.75l-0.58,0.15l-0.09-0.14
			l-0.56-0.3l-0.43-0.53l-0.21-0.49l-1.3-1.54l-1.06-0.83l-0.46-0.09l-0.79-0.42l-0.36,0.05l-1-0.32l-0.96-0.03l-2.41,0.22
			l-0.91,0.34l-1.75,0.73l-1.74,0.88l-0.24,0.4l-0.83,0.39l-0.1,0.38l-0.49,0.21l-0.25,0.39l-0.48,0.36l-0.5,0.13l-0.18,0.24
			l-0.43,0.12l-0.66,0.67l-0.9,0.48l-1.1-0.01l-0.95-0.47l-1.96-1.6l-0.54-0.15l-1.31-1.09l-0.62-0.29l-1.05-0.17l-2.27,0.72
			l-2.07,1.14l-1.99,1.2l-2.03,0.92l-0.33,0.33l-0.85,0.25l-1.73,0.95l-2.02,0.99l-2.06,1.21l-1.06,0.35l-1.11,0.65l-0.19,0.24
			l-0.83,0.48l-2.09,0.99l0.02,0.22l-0.36,0.04l-1.05,1.09l-0.29,0.03l-1.07,0.94l0.03,0.22l-0.37,0.04l-0.12,0.24l-1.33,1.19
			l-0.5,0.21l-0.71,0.75l-0.49,0.28l-0.85,1.5l-0.66,0.67l0.04,0.29l-0.32,0.41l-0.16,0.53l-0.31,0.41l-0.08,0.52l-0.77,1.5
			l-0.07,0.6l-0.39,1.08l0.04,0.29l-0.26,0.25l-0.08,0.53l-0.02,2.29l0.3,2.47l0.61,1.91l0.14-0.02l0.07,0.51l0.23,0.12l0.47,1.42
			l0.55,0.3l0.12,0.36l0.23,0.12l0.8,1.16l0.21,0.49l0.76,0.79l0.88,0.63l2.07,1.22l1.91,0.5l2.17,0.32l1.18,0l1.14-0.29l0.47-1.01
			l-0.18-2.05l0.21-0.17l-0.27-0.34l-0.11-1.54l-0.35-1.06l-0.43-0.46l-1.57-0.77l-2.09-0.85l-0.77-0.87l-0.5-1.11l-0.15,0.01
			l-0.38-1.28l-0.15-1.24l0.18-2.23l0.5-1.32l0.32-0.41l1.31-1.94l1.5-1.58l1.89-1.42l2.07-1.21l2.05-1.28l0.5-0.14l0.59-0.58
			l1.97-0.83l2.02-0.99l-0.02-0.15l1.6-0.79l2.08-1.06l1.07-0.28l0.53,0.16l0.25,0.78l-0.08,0.53l-0.25,0.32l-0.19,1.5l-0.27,1.95
			l-0.22,0.03l0.03,0.29l-0.15,0.02l0.04,0.37l-0.31,0.48l-0.41,1.45l0.04,0.28l-0.22,0.03l0,0.66l-0.3,1.14l-0.55,2.13l-0.61,2.21
			l-0.46,2.27l-0.14,0.09l-0.05,0.81l-0.4,0.35l-0.59,1.91l-0.21,1.28l-0.24,0.4l-0.02,0.52l-0.44,1.16l-0.41,2.12l-0.14,0.01
			l-0.36,1.89l-0.25,0.4l0.04,0.29l-0.15,0.02l0.05,0.36l-0.15,0.02l0.04,0.28l-0.15,0.02l0.05,0.37l-0.22,0.03l0.04,0.29
			l-0.15,0.02l-0.03,0.96l-0.23,1.13l-0.15,0.02l0.04,0.3l-0.52,1.76l-0.34,2.03l-0.14,0.02l0.04,0.29l-0.22,0.02l0.04,0.37
			l-0.22,0.54l0.03,0.29l-0.14,0.02l0.05,0.36l-0.22,0.02l-0.02,0.44l-0.48,2.13l-0.15,0.02l-0.07,0.6l-0.38,1.08l-0.39,2.26
			l-0.2,0.17l-0.04,0.3l-0.73,2.45l-0.14,1.2l0.27,1l0.63,0.36l1.21,0.22l1.94-0.38l2.42-0.15L119.07,212.11z M137.5,203.58
			l-0.36,0.05l-0.02-0.14l-0.14,0.02l0.04-0.23l0.29-0.04l0.25,0.19L137.5,203.58z M143.49,184.48l-0.3,0.04l-0.16-0.13l0.06-0.74
			l0.44-0.06l0.07,0.65L143.49,184.48z M155.88,209.13l-0.04-0.29l0.44,0.02l0.1,0.21L155.88,209.13z M157.34,207.78l0.04,0.36
			l-0.29,0.04l-0.05-0.36L157.34,207.78z M157.46,213.59l-0.38-0.1l-0.02-0.15l0.57-0.74l0.17,0.2l0.04,0.37L157.46,213.59z
			 M169.64,157.89l0.44,0.02l0.07,0.58l-0.42,0.2l-0.03-0.22l-0.19-0.35L169.64,157.89z M169.43,160.93l0.05-0.22l0.31,0.11
			l-0.1,0.38l-0.3-0.11L169.43,160.93z M168.17,157.33l0.4-0.35l0.6,0.08l0.05,0.37l-0.15,0.53l-0.48,0.28l-0.26,0.33l-0.31-0.18
			l-0.02-0.15L168.17,157.33z M166.6,172.79l0.31,0.11l-0.05,0.23l-0.47,0.35l-0.36,0.05l-0.03-0.22L166.6,172.79z M151.09,160.53
			l0.39-0.42l0.37-0.05l-0.04,0.3l-0.38,0.49l-0.28,0.11l-0.09-0.13L151.09,160.53z M150.46,158.47l0.36-0.12l0.06,0.52l-0.12,0.23
			l-0.49,0.28l-0.09-0.14l-0.11-0.35L150.46,158.47z M149.34,161.34l0.84,0.27l-0.03,0.3l-0.39,0.49l-0.28,0.11l-0.08-0.06
			l-0.18-0.86L149.34,161.34z M148.87,163.46l0.15,0.64l-0.17,0.46l-0.29,0.04l-0.1-0.13l-0.07-1.17L148.87,163.46z M147.18,155.78
			l0.42-0.2l0.07,0.58l-0.12,0.24l-0.15,0.02l-0.26-0.34L147.18,155.78z M145.63,178.54l-0.04-0.36l0.29-0.04l0.05,0.36
			L145.63,178.54z M146.04,159.68l0.15,0.58l-0.8,0.09l-0.03-0.22l0.22-0.62l0.29-0.03L146.04,159.68z M145.22,157.2l0.46,0.09
			l0.01,0.15l-0.27,0.18l-0.24-0.12L145.22,157.2z M130.9,161.32l0.52,0.08l-0.05,0.23l-0.57,0.15l-0.03-0.22L130.9,161.32z
			 M128.89,163.56l0.05-0.15l-0.05-0.44l0.57-0.14l0.35,1.06l0.15,1.16l-0.2,0.24l-0.22,0.03l-0.94-1.06l0.08-0.6L128.89,163.56z
			 M128.1,161.37l0.29-0.11l0.24,0.12l-0.32,0.41l-0.29,0.04l-0.03-0.22L128.1,161.37z M127.38,172.89l-0.34,0.26l-0.15-0.05
			l-0.17-0.2l0.12-0.82l0.21-0.1l0.24,0.12L127.38,172.89z M126.86,161.45l0.34,0.33l-0.12,0.23l-0.35,0.12l-0.08-0.65
			L126.86,161.45z M126.01,177.92l-0.05-0.36l0.29-0.04l0.04,0.37L126.01,177.92z M125.84,160.39l0.15-0.02l0.17,0.2l0.14,0.57
			l-0.31,0.48l-0.15-0.05l-0.08-0.06l-0.1-0.21L125.84,160.39z M123.66,183.38l0.01,0.14l-0.44,0.06l-0.11-0.28L123.66,183.38z
			 M121.4,195.6l0.1,0.21l-0.51,0.06l-0.04-0.29L121.4,195.6z M120.51,190.84l-0.19-0.35l0.66-0.08l-0.23,0.54l-0.05,0.82
			l-0.37,0.04l-0.11-0.28l0.32-0.41L120.51,190.84z M119.85,194.39l0.03,0.29l-0.36,0.04l-0.03-0.29L119.85,194.39z M118.4,197.59
			l0.28-0.03l0.17,0.2l0.14,0.57l-0.14,0.02l-0.31-0.11l-0.27-0.42L118.4,197.59z"/>
		<path class="st0" d="M305.66,169.41l-0.92-0.85l-0.47-0.23l-1.13-0.16l-0.43,0.13l-0.7,0.9l-0.53,1.1l-0.62,0.89l-0.02,0.44
			l-0.31,0.48l-0.09,0.46l-0.9,1.66l-1.23,2l-2.62,3.86l-1.58,1.59l-0.69,0.97l-0.55,0.28l-0.22,0.55l-0.48,0.35l-1.85,1.7
			l-1.91,1.34l-0.52-0.16l-0.09-0.13l-0.16-0.05l-0.21-0.57l0.55-1.54l0.15-1.2l0.18-0.31l0.4-2.12l0.46-1.09l0.23-1.13l0.59-2.29
			l0.69-2.22l0.67-2.3l0.61-2.28l0.57-1.84l0.13-1.94l0.33-1l0.54-0.95l0.23-1.14l0.24-0.47l0.07-0.6l0.62-2.21l0.67-2.3l-0.04-0.29
			l0.2-0.18l0.09-0.53l0.67-2.37l0.16-1.13l-0.13-0.43l-0.59-0.59l-1.14-0.3l-1.41-0.05l-1.78,0.51l-2.33,0.28l-0.97,0.49
			l-0.63,0.89l-0.16,0.54l-0.25,2.09l-0.77,2.24l-0.66,2.37l-0.1,1.05l-0.6,2.28l-0.31,2.25l-0.32,1l-0.38,0.49l-0.11,0.9
			l-0.15,0.02l-0.41,1.37l0.02,0.81l-0.33,0.41l-0.45,1.09l0.01,0.73l-0.54,0.95l0.04,0.29l-0.33,0.41l-0.08,0.53l-0.63,0.96
			l-0.3,1.14l-0.26,0.18l-0.16,0.54l-1.06,2.12l-0.04,0.38l-0.77,0.91l-0.16,0.53l-0.91,1l-1.23,1.99l-0.68,0.45l-0.12,0.31
			l-2.31,0.95l-1-0.25l-0.68-0.8l-0.14-0.57l-0.02-2.51l0.31-1.14l0.36-2.41l0.31-0.41l0.33-1v-0.59l0.32-0.41l-0.05-0.29l0.46-2.34
			l0.45-1.09l0.07-0.6l1.25-4.28l0.61-2.22l0.62-2.14l-0.03-0.81l0.31-0.48l0.33-1.59l0.19-0.18l-0.04-0.28l0.25-0.4l0.16-1.05
			l0.3-0.55l0.19-1.5l0.6-1.69l-0.07-0.59l-1.12-0.74l-0.91-0.18l-1.24,0.01l-2.92,0.28l-1.83,0.67l-0.8,1.28l0.04,0.29l-0.21,0.1
			l-0.15,1.13l-0.15,0.02l0.05,0.36l-0.22,0.02l-0.46,2.27l-0.38,2.26l-0.18,0.25l0.03,0.29l-0.38,0.49l-0.03,0.44l-0.14,0.02
			l0.04,0.29l-0.63,2.14l-0.54,2.28l-0.59,2.36l-0.76,2.23l-0.28,1.22l-0.67,1.26l0.04,0.29l-0.75,1.78l-0.54,0.95l-0.02,0.44
			l-0.33,0.33l-0.09,0.46l-0.7,0.97l-0.45,1.09l-1.16,1.99l-0.06,0.08l-0.41,0.94l-0.39,0.41l-0.53,1.1l-1.41,1.79l-1.54,1.23
			l-0.36,0.12l-0.67-0.07l-0.55-0.23l-0.8-1.08l-0.18-1.45l0.02-1.11l0.53-2.28l0.15-1.2l0.14-0.02l0.03-1.55l0.29-0.63l0.09-0.53
			l0.31-0.48l0.02-0.44l0.14-0.02l-0.03-0.29l0.3-1.15l0.69-2.15l0.01-0.52l0.3-0.55l0.15-1.2l0.21-0.17l0.18-1.5l-0.07-1.17
			l-0.17-0.2l0.05-0.82l-0.78-2.19l-0.78-0.94l-0.91-0.77l-1.66-1.56l-0.53-0.09l-0.19-0.35l-0.94-0.4l-1.95-1.46l-1.24-0.51
			l-0.42-0.39l-0.3-0.04l-0.6-0.66l-0.25-0.86l0.76-2.16l0.54-2.21l0.02-1.1l-0.35-0.4l-0.97-0.69l-1.09-0.46l-0.1-0.2l-0.49-0.31
			l-1.21-0.22l-1.29,0.31l-0.75,0.39l-0.43,0.72l-0.48,0.35l-0.7,0.9l-1.31,1.93l-0.38,1.08l-0.16,1.13l0.02,1.33l0.42,2.24
			l0.6,0.59l0.22,0.56l0.41,0.39l0.43,1.05l0.15,1.24l-0.69,2.22l-0.83,2.24l-0.02,0.45l-0.19,0.24l-0.3,1.15l-0.14,0.02l-0.03,0.37
			l-0.31,0.48l-0.08,0.53l-0.46,1.01l-0.51,1.31l-0.69,2.1l-0.08,0.06l-1.07,2.05l0.03,0.29l-0.74,1.79l-0.54,0.95l-0.02,0.44
			l-0.33,0.34l-0.1,0.45l-0.69,0.97l-0.46,1.09l-1.16,1.98l-0.06,0.08l-0.4,0.94l-0.39,0.41l-0.54,1.1l-1.4,1.8l-1.55,1.22
			l-0.35,0.11l-0.67-0.06l-0.54-0.23l-0.79-1.08l-0.19-1.45l0.01-1.11l0.53-2.28l0.15-1.2l0.14-0.02l0.03-1.55l0.29-0.63l0.07-0.53
			l0.32-0.48l0.02-0.45l0.14-0.02l-0.04-0.29l0.3-1.14l0.7-2.15l0.01-0.52l0.3-0.55l0.14-1.2l0.21-0.17l0.17-1.5l-0.07-1.17
			l-0.17-0.2l0.05-0.82l-0.79-2.19l-0.78-0.94l-0.9-0.77l-1.67-1.56l-0.52-0.09l-0.19-0.34l-0.94-0.4l-1.94-1.46l-1.25-0.51
			l-0.41-0.39l-0.3-0.03l-0.59-0.67l-0.26-0.85l0.77-2.16l0.55-2.21l0.01-1.11l-0.35-0.4l-0.96-0.69l-1.09-0.46l-0.1-0.21
			l-0.48-0.31l-1.21-0.22l-1.29,0.31l-0.76,0.39l-0.43,0.72l-0.47,0.35l-0.7,0.9l-1.31,1.93l-0.38,1.08l-0.16,1.12l0.02,1.33
			l0.42,2.23l0.59,0.59l0.22,0.57l0.42,0.39l0.42,1.06l0.15,1.24l-0.69,2.22l-0.83,2.24l-0.02,0.44l-0.2,0.25l-0.29,1.14l-0.15,0.02
			l-0.03,0.37l-0.31,0.48l-0.07,0.53l-0.47,1.01l-0.5,1.32l-0.57,1.76l-0.88,1.44l-0.02,0.45l-0.61,1.03l-1.14,2.06l-1.17,1.91
			l-1.24,1.85l-1.21,1.55l-0.49,0.2l-0.67,1.12l-0.43,0.13l-0.82,1.14l-0.36,0.04l-0.11,0.31l-0.37,0.04l-1.3,1.34l-2.14,1.22
			l-2,1.13l-2.13,0.63l-2.48,0.23l-1.34-0.13l-0.85-0.26l-1.1-0.6l-1.59-1.5l-0.48-0.9l-0.3-2.47l0.1-2.22l1.05-1.02l2.39-0.37
			l2.25-0.35l2.25-0.28l0.48-0.28l1.16-0.22l0.91-0.41l1.74-0.8l-0.02-0.15l0.36-0.05l0.25-0.4l0.63-0.3l0.95-0.71l0.32-0.41
			l0.27-0.11l0.86-0.84l1.54-1.89l0.4-0.93l0.38-0.49l0.25-0.99l0.27-0.18l0.28-1.29l0.37-0.56l0.47-1.61v-0.59l0.31-2.26v-1.18
			l-0.57-2.29l-0.55-2.07l-0.32-0.18l-0.05-0.36l-0.3-0.11l-0.22-0.48l-1.27-0.81l-0.84-0.86l-1.15-0.3l-0.88-0.56l-1.2-0.14
			l-0.24-0.19l-0.98-0.18l-2.32,0.29l-0.13,0.16l-0.73,0.09l-2.24,0.43l-2.16,1l-0.97,0.56l-0.24,0.47l-0.36,0.12l-1.73,1.46
			l-0.43,0.13l-0.43,0.71l-0.78,0.83l-0.67,1.12l-0.78,0.83l-1.34,1.72l-0.77,1.57l-0.87,1.95l-0.09,0.53l-0.28,0.18l-0.52,1.68
			l-0.29,0.63l-0.65,1.93l-0.64,2l0.1,0.87l-0.33,1.52l-0.17,2.23l-0.2,0.18l-0.01,1.77l-0.16,2.31l0.37,2.39l0.56,2.14l0.74,2.42
			l0.25,0.27l0.13,0.42l0.7,0.95l0.23,0.12l1.04,1.2l0.62,0.22l0.49,0.38l0.93,0.41l2.3,0.74l1.18,0l1.89,0.36l1.09-0.13l2.35-0.07
			l1.2-0.44l1.01-0.2l-0.02-0.15l0.22-0.03l2.21-0.57l0.12-0.23l0.85-0.26l1.53-0.78l1.14-0.36l0.12-0.24l1.13-0.43l-0.02-0.15
			l0.37-0.05l1.57-1.59l0.95-0.64l0.12-0.24l0.49-0.2l0.31-0.48l0.55-0.29l1.27-1.63l1.48-1.81l1.39-1.87l1.32-1.86l0.02-0.45
			l0.82-1.13l0.15-0.54l0.62-0.96l0.34-0.85l0.99-2.11l0.08-0.53l0.15-0.01l-0.03-0.41l0.05-0.03l0.15-0.54l0.38-0.49l0.43-1.23
			l0.15-0.02l-0.05-0.36l0.39-0.49l0.18-0.91l0.83-2.24l0.78-2.09l0.16-1.05l0.32-0.41l0.12-0.9l0.68-1.05l0.41-0.27l0.57-0.14
			l1.99,1.15l0.76,0.79l0.49,0.97l0.08,1.25l-0.11,0.97l-0.12,0.16l-0.15,1.2l-0.44,1.16l-0.62,2.21l-0.52,2.35l-0.39,0.49
			l-0.3,1.73l-0.3,2.33l-0.15,2.38l-0.32,2.18l0.29,2.33l0.42,1.05l1.01,2.23l0.23,0.12l0.13,0.43l1.18,0.59l0.43,0.47l0.54,0.23
			l2.27,0.46l2.21-0.57l2.33-0.28l0.89-0.55l2.03-1.51l1.58-1.59l1.49-1.66l0.6-1.11l0.15-0.01l0.44-0.64l-0.03-0.29l0.68-1.04
			l1.08-1.98l1-2.11l0.08-0.53l0.19-0.25l1.37-2.01l0.02-0.52l0.22-0.02l-0.04-0.29l0.14-0.02l-0.05-0.36l0.15-0.02l0.03-0.37
			l0.2-0.17l0.04-0.3l0.65-1.27l0.3-1.22l0.15-0.53l0.38-0.49l0.44-1.24l0.14-0.02l-0.04-0.36l0.38-0.49l0.18-0.91l0.83-2.24
			l0.78-2.09l0.17-1.06l0.31-0.41l0.11-0.9l0.69-1.05l0.4-0.27l0.58-0.15l1.98,1.16l0.76,0.79l0.49,0.97l0.08,1.24l-0.1,0.97
			l-0.13,0.16l-0.15,1.2l-0.44,1.16l-0.62,2.22l-0.52,2.35l-0.38,0.49l-0.31,1.73l-0.3,2.33l-0.15,2.38l-0.32,2.18l0.29,2.32
			l0.43,1.05l1.01,2.24l0.24,0.12l0.13,0.43l1.17,0.59l0.42,0.46l0.55,0.23l2.28,0.46l2.21-0.57l2.33-0.29l0.89-0.55l2.03-1.5
			l1.58-1.59l1.49-1.66l0.6-1.11l0.15-0.02l0.43-0.64l-0.03-0.29l0.27-0.41l0.09,0.44l-0.11,0.89l1.07,2.08l0.22-0.02l1.16,1.7
			l0.37-0.04l0.89,0.7l0.36-0.05l0.02,0.15l0.54,0.22l2.44,0.07l1.31-0.16l2.05-0.62l0.18-0.32l0.57-0.22l0.88-0.62l1.64-1.02
			l0.56,0.3l0.19,0.35v0.59l-0.62,1.04l-0.78,0.91l-0.88,0.62l-2,1.13l-0.31,0.41l-0.49,0.28l-2.13,1.15l-1.91,1.34l-1.9,1.27
			l-0.49,0.8l-0.29,0.11l-0.37,0.57l-1.56,1.74l-0.03,0.3l-0.52,0.65l-0.93,2.03l-0.15,1.13l-0.12,0.16l0,0.67l0.5,2.3l0.51,1.12
			l0.79,1l1.79,1.4l1.09,0.53l0.52,0.08l2.34,0.37l1.17,0l1.3-0.23l2.08-0.55l1.02-0.64l1.84-1.19l0.39-0.49l0.5-0.13l0.11-0.38
			l0.36-0.05l0.81-1.21l1.23-1.99l1.01-2.04l0.27-0.18l0.16-0.53l0.49-0.8l0.13-0.75l0.29-0.55l0.08-0.52l0.32-0.48l0.01-0.51
			l0.32-1l0.39-1.6l0.7-2.08l0.38-1.67l0.7-0.97l0.79-0.76l0.56-0.22l0.47-0.43l0.49-0.21l1.89-1.34l1.83-1.4l0.68-0.38l0.8-0.69
			l1.57-1.67l1.02-0.72l1.58-1.52l1.45-1.95l1.55-1.81l1.24-1.92l1.1-1.83l0.65-0.74l0.17-0.46l0.39-0.41l0.04-0.31l0.14-0.01
			l0.14-0.61l0.39-0.49l0.21-1.28l0.56-0.8l0.6-1.11l0.07-0.6L305.66,169.41z M290.19,164.75l-0.33,0.41l-0.64,0.22l-0.2-0.49
			l0.06-0.08l1.08-0.21L290.19,164.75z M289.46,160.71l0.04,0.29l-0.44,0.05l-0.07-0.51L289.46,160.71z M288.21,163.67l0.28-0.04
			l-0.08,0.53l-0.29,0.03l-0.01-0.15L288.21,163.67z M288.31,171.69l0.05,0.36l-0.11,0.24l-0.48,0.28l-0.09-0.13l-0.16-0.65
			L288.31,171.69z M271.58,160.4l0.38,0.1l0.04,0.29l-0.21,0.03l-0.24-0.12L271.58,160.4z M197.89,171.74l0.03,0.29l-0.36,0.04
			l-0.04-0.29L197.89,171.74z M196.76,170.85l0.09,0.14l-0.12,0.24l-0.58,0.07l-0.05-0.37L196.76,170.85z M182.68,180.62l0.02-0.52
			l0.22-0.03l-0.04-0.29l0.15-0.02l0.23-1.13l0.87-1.88l0.2-0.17l0.56-1.39l1.3-2l0.43-0.13l1.36-1.57l0.42-0.13l0.89-0.55
			l1.96-0.24l0.47,0.16l0.98,0.84l-0.02,2.22l-0.3,1.21l-0.76,2.23l-0.7,2.08l-1.38,1.94l-0.43,0.12l-0.12,0.23l-0.82,0.47
			l-0.59,0.59l-0.56,0.21l-0.4,0.42l-0.86,0.18l-2.62,0.32l-0.46-0.16l-0.61-0.74L182.68,180.62z M175.85,186.77l0.09,0.72
			l-0.3,0.04l-0.09-0.73L175.85,186.77z M175.74,194.31l-0.31-0.12l0.03-0.3l0.45,0.09l0.02,0.14L175.74,194.31z M176.4,191.27
			l0.38,0.1l-0.18,0.32l-0.3-0.11L176.4,191.27z M176.52,196.42l-0.04-0.36l0.36-0.05l0.04,0.36L176.52,196.42z M177.41,186.87
			l-0.58,0.07l-0.12-0.43l0.13-0.09l0.66-0.01L177.41,186.87z M179.21,179.94l-0.35,0.12l0.31-0.48l0.07,0L179.21,179.94z
			 M219.72,181.89l-0.22,0.03l-0.24-0.27l0.35-0.7l0.31,0.11L219.72,181.89z M223.02,175.74l-0.36,0.05l-0.17-0.2l-0.05-0.37
			l0.44-0.05l0.25,0.19l0.04,0.29L223.02,175.74z M249.36,178.25l-0.22,0.02l-0.26-0.27l0.37-0.7l0.31,0.11L249.36,178.25z
			 M252.66,172.09l-0.36,0.04l-0.17-0.2l-0.04-0.36l0.43-0.06l0.25,0.19l0.04,0.29L252.66,172.09z M266.19,187.39l-0.03-0.29
			l0.36-0.05l0.03,0.3L266.19,187.39z M268.46,180.1l-0.14,0.02l-0.17-0.2l-0.05-0.36l0.12-0.23l0.53,0.08l0.04,0.29L268.46,180.1z
			 M269.35,174.69l-0.04-0.37l0.8-0.1l0.04,0.29L269.35,174.69z M274.03,203.17l-0.99,2.11l-1.38,1.95l-0.74,0.68l-1.11,0.58
			l-1.31,0.16l-0.86-0.41l-0.44-0.54l-0.25-0.86l0.26-0.84l0.37-0.56l0.09-0.53l0.69-0.97l0.48-0.35l0.12-0.24l0.8-0.69l1.65-1.02
			l2.05-1.28l0.13-0.09l0.29-0.11l0.8,0.57l0.07,0.5L274.03,203.17z M281.65,184.75l1.02-0.12l0.11,0.28l-0.24,0.47l-0.67-0.06
			l-0.28-0.48L281.65,184.75z M280.55,184.15l0.34,0.33l-0.12,0.3l-0.15-0.05l-0.26-0.26l-0.04-0.29L280.55,184.15z M278.88,184.36
			l0.49,0.38l0.11,0.28l-0.12,0.23l-0.15-0.05l-0.14,0.02l-0.26-0.33L278.88,184.36z M277.73,195.48l0.07-0.07l0.57-0.15l0.17,0.2
			l0.17,0.86l0.15,0.05l-0.37,0.56l-0.04,0.3l-0.54-0.08l-0.34-0.4l0.34-0.78L277.73,195.48z M277.73,197.85l0.28-0.03l0.04,0.29
			l-0.29,0.04L277.73,197.85z M279.02,204.11l-0.35,0.12l-0.02-0.22l-0.21-0.49l0.12-0.24l0.22,0.05l0.25,0.26L279.02,204.11z
			 M278.99,187.15l0.54-0.36l0.31-0.48l0.29-0.11l0.45,0.09l0.14-0.02l0.65-0.15l0.24,0.19l-0.33,0.26l-1.22,0.3l-0.66,0.6
			l-0.31-0.11L278.99,187.15z M279.25,198.18l-0.05-0.36l0.15-0.02l-0.02-0.14l0.14-0.02l0.05,0.44L279.25,198.18z M279.74,195.61
			l-0.41-0.32l-0.2-0.5l0.36-0.04l0.54,0.16l0.08,0.65L279.74,195.61z M280.67,197.78l-0.3-0.11l0.11-0.31l0.38,0.1L280.67,197.78z
			 M280.82,190.61l0.29,0.04l0.27,0.41l-0.14,0.02l-0.39-0.18L280.82,190.61z M280.97,191.84l0.11-0.23l0.38,0.1l0.18,0.27
			l-0.09,0.39l-0.16-0.05L280.97,191.84z M282.29,195.96l-0.46-0.17l-0.34-0.33l0.11-0.3l0.27-0.18l0.44-0.05l0.14,0.5
			L282.29,195.96z M283.15,190.32l-1.08-0.38l0.29-0.55l-0.1-0.21l-0.6-0.07l-0.12-0.28l0.43-0.2l0.59,0l0.41,0.39l0.58-0.07
			l0.24,0.12l0.04,0.36l-0.3,0.55L283.15,190.32z M283.74,191.58l-0.04-0.29l0.37-0.05l0.04,0.29L283.74,191.58z M284.03,186.16
			l-0.3-0.11l-0.02,1.04l-0.48,0.21l-0.23-0.05l-0.19-0.86l0.07-0.08l0.67-0.45l0.33-0.41l-0.04-0.36l0.23,0.12l0.17,0.79
			L284.03,186.16z M284.16,183.64l-0.2,0.09l-0.52-0.08l-0.03-0.22l0.44-0.57l-0.01-0.15l0.23,0.05l0.18,0.27L284.16,183.64z
			 M284.44,175.64l0.32-0.41l0.15,0.06l0.12,0.35l-0.32,0.34l-0.16-0.06L284.44,175.64z M285.11,187.65l-0.28,0.11l0.05-0.16
			l-0.17-0.79l0.29,0.03l0.18,0.2l0.04,0.36L285.11,187.65z M286.42,180.33l-0.36,0.12l-0.02-0.22l0.09-0.45l0.15-0.02l0.26,0.34
			L286.42,180.33z M286.78,170.7l-0.29,0.11l-0.6-0.15l-0.05-0.36l0.81-0.03l0.16,0.13l0.04,0.29L286.78,170.7z"/>
		<path class="st0" d="M185.92,131.66l-2.55,5.73c2.54,1.86,7.11,5.7,7.02,9.25c0,0,5.49-1.19,8.29,0c0,0,9.7-15.18,26.43-3.19
			c0,0,0.97-1.46,2.74-3.13l-6.47-7.5l3.22,0.15l-17.06-21.87l4.44-1.4l-14.41-20.66l-12.11,28.49l4.8-1.4l-9.31,15.48
			L185.92,131.66z"/>
		<path class="st0" d="M235.13,132.74l-1.74,3.93c3.87-1.61,8.97-1.88,14.96,2l6.63-0.69l-4.07-4.71l1.43,0.06l-7.59-9.72l1.98-0.62
			l-6.4-9.19l-5.39,12.67l2.14-0.62l-4.13,6.88L235.13,132.74z"/>
		<path class="st0" d="M160.32,136.61c0,0,8.34-4.22,16.26-2.51l-3.68-4.26l1.57,0.07l-8.33-10.67l2.17-0.69l-7.04-10.08l-5.92,13.9
			l2.35-0.69l-4.54,7.55l2.42,0.03l-2.77,6.23C155.52,135.2,158.4,135.3,160.32,136.61z"/>
		<path class="st0" d="M184.06,280.43c-1.47,0-4,0.4-7.61,1.17c-11.84,5.27-19.93,7.9-24.27,7.9c-5.9,0-11.36-2.34-16.38-7.02h-0.3
			c0,0.73,0.98,2.69,2.94,5.85c3.84,3.51,7.46,5.26,10.82,5.26v0.59c-3.46,4.24-5.41,7.55-5.85,9.94c0.39,1.56,0.78,2.35,1.17,2.35
			v-2.35c0-0.44,0.39-1.41,1.18-2.92c1.26-1.07,4.97-3.61,11.11-7.6c0,1.22-1.56,3.17-4.68,5.85v0.3c1.75-0.39,2.73-0.59,2.92-0.59
			c2.63-2.34,4.29-3.51,4.97-3.51h0.58l0.88,0.58c3.51,5.46,7.51,8.19,12,8.19l4.97-0.58v-0.59c-1.56,0-3.6-0.49-6.14-1.46
			c-4.29-2.88-6.43-5.02-6.43-6.44v-0.29c1.81,1.95,3.56,2.92,5.27,2.92c2.34,0,3.71-1.37,4.09-4.1v-0.87
			c0-1.17-0.59-1.95-1.75-2.34c-0.78,0-1.47,0.49-2.05,1.46c0,0.39,0.19,0.59,0.58,0.59h0.29c0.39,0,0.59-0.2,0.59-0.59
			c0.39,0.1,0.78,0.59,1.17,1.46c0,1.07-0.78,1.85-2.34,2.34c-2.05,0-3.32-1.46-3.81-4.39c0.68-2.54,2.34-3.81,4.97-3.81
			c0.54,0,3.76,1.18,9.65,3.51c1.17-0.2,1.76-0.49,1.76-0.88v-0.59l-1.46,0.29h-0.29c-1.61,0-2.68-1.16-3.22-3.51
			c0-1.75,1.27-2.63,3.81-2.63c6.04,0.68,9.07,2.34,9.07,4.98v0.58c0,1.8-1.47,2.98-4.38,3.51v0.58h0.58c3.71,0,5.56-1.56,5.56-4.67
			c-0.2,0-0.3-0.1-0.3-0.3v-0.29h0.3c2.92,2.29,4.38,5.12,4.38,8.48v0.88c0,3.99-1.27,6.92-3.8,8.78v0.28
			c2.63,0,4.68-2.83,6.14-8.47v-4.68c0-0.83-0.19-1.61-0.59-2.34C196.38,284.04,191.02,280.43,184.06,280.43z"/>
		<path class="st0" d="M250.84,289.5c-4.34,0-12.42-2.63-24.28-7.9c-3.61-0.78-6.14-1.17-7.6-1.17c-6.98,0-12.34,3.61-16.09,10.82
			c-0.39,0.73-0.58,1.51-0.58,2.34v4.68c1.46,5.65,3.5,8.47,6.14,8.47v-0.28c-2.53-1.85-3.8-4.78-3.8-8.78v-0.88
			c0-3.36,1.46-6.19,4.39-8.48h0.29v0.29c0,0.2-0.1,0.3-0.29,0.3c0,3.11,1.85,4.67,5.55,4.67h0.58v-0.58
			c-2.92-0.53-4.39-1.71-4.39-3.51v-0.58c0-2.64,3.03-4.29,9.07-4.98c2.54,0,3.81,0.88,3.81,2.63c-0.55,2.35-1.62,3.51-3.22,3.51
			h-0.29l-1.47-0.29v0.59c0,0.39,0.58,0.68,1.76,0.88c5.89-2.33,9.11-3.51,9.64-3.51c2.64,0,4.29,1.27,4.98,3.81
			c-0.49,2.92-1.75,4.39-3.8,4.39c-1.57-0.49-2.34-1.27-2.34-2.34c0.39-0.88,0.78-1.37,1.16-1.46c0,0.39,0.2,0.59,0.59,0.59h0.29
			c0.39,0,0.58-0.2,0.58-0.59c-0.58-0.97-1.27-1.46-2.05-1.46c-1.17,0.39-1.76,1.17-1.76,2.34v0.87c0.39,2.73,1.76,4.1,4.1,4.1
			c1.7,0,3.46-0.97,5.26-2.92v0.29c0,1.42-2.14,3.56-6.43,6.44c-2.53,0.97-4.58,1.46-6.14,1.46v0.59l4.97,0.58
			c4.49,0,8.48-2.73,11.99-8.19l0.87-0.58h0.59c0.68,0,2.34,1.17,4.97,3.51c0.19,0,1.17,0.2,2.92,0.59v-0.3
			c-3.12-2.68-4.68-4.63-4.68-5.85c6.14,3.99,9.84,6.53,11.11,7.6c0.78,1.51,1.17,2.49,1.17,2.92v2.35c0.38,0,0.77-0.78,1.16-2.35
			c-0.44-2.39-2.39-5.7-5.85-9.94v-0.59c3.37,0,6.97-1.75,10.82-5.26c1.96-3.17,2.93-5.12,2.93-5.85h-0.29
			C262.2,287.16,256.74,289.5,250.84,289.5z"/>
	</g>
	<g>
		<path class="st0" d="M377.89,195.1c-4.48-5.72-6.28-19.22-6.45-24.83c0-18.71-11.65-35.4-29.06-41.8
			c-3.38-21.57-22.17-37.74-44.03-37.74h-19.98c-7.38-16.8-38.2-28.02-77.27-28.02s-69.89,11.22-77.27,28.02h-19.98
			c-21.87,0-40.66,16.17-44.03,37.74c-17.42,6.4-29.06,23.12-29.06,41.9l0,0.22c0.4,10.01-1.81,20.87-4.64,22.77l-8.84,5.95
			l8.22,6.78c2.2,1.81,4.97,12.55,5.26,23.63c0,18.71,11.65,35.4,29.06,41.8c3.38,21.57,22.16,37.73,44.03,37.73h19.98
			c7.38,16.8,38.2,28.02,77.27,28.02c39.07,0,69.89-11.22,77.27-28.02h19.98c21.87,0,40.66-16.16,44.03-37.73
			c17.38-6.39,29.02-23,29.06-41.55c0.47-11.21,3.24-22.2,5.23-23.82l6.03-4.92L377.89,195.1z M375.82,205.13
			c-2.54,2.07-5.26,13.88-5.71,24.79c-0.04,18.46-11.59,34.61-28.93,40.63c-2.91,21.1-21.4,37.39-42.84,37.39h-20.86
			c-6.44,16.6-37.25,28.02-76.38,28.02s-69.94-11.42-76.38-28.02h-20.86c-21.45,0-39.93-16.29-42.84-37.39
			c-17.38-6.03-28.93-22.22-28.93-40.82c-0.28-10.81-2.96-22.36-5.74-24.65l-6.85-5.65l7.37-4.96c3.6-2.42,5.61-14.32,5.23-23.92
			l-0.01-0.2c0-18.67,11.55-34.86,28.93-40.88c2.91-21.11,21.4-37.39,42.84-37.39h20.86c6.44-16.6,37.25-28.02,76.38-28.02
			s69.94,11.42,76.38,28.02h20.86c21.44,0,39.93,16.29,42.84,37.39c17.38,6.03,28.93,22.22,28.93,40.82
			c0.14,4.54,1.68,19.18,6.74,25.64l4.01,5.11L375.82,205.13z"/>
		<path class="st0" d="M374.76,197.54c-5.53-7.06-7.14-22.17-7.3-27.28c0-18.1-11.66-33.66-28.72-38.83
			c-1.97-20.52-19.49-36.74-40.41-36.74h-22.78c-4.31-16.23-34.89-28.02-74.46-28.02c-39.58,0-70.15,11.79-74.47,28.02h-22.78
			c-20.91,0-38.44,16.22-40.41,36.74c-17.05,5.17-28.72,20.73-28.72,38.82l0.01,0.16c0.33,8.26-1.12,22.68-6.4,26.23l-4.42,2.97
			l4.11,3.39c4.24,3.5,6.47,17.78,6.7,26.7c0,18.1,11.67,33.66,28.72,38.82c1.97,20.52,19.49,36.74,40.41,36.74h22.78
			c4.31,16.22,34.88,28.01,74.47,28.01c39.58,0,70.15-11.79,74.46-28.01h22.78c20.91,0,38.44-16.22,40.41-36.74
			c17.03-5.16,28.68-20.68,28.72-38.74c0.38-9.17,2.7-23.48,6.69-26.73l3.02-2.46L374.76,197.54z M363.49,229.72
			c0,17.45-12.21,32.04-28.54,35.72c-0.41,19.87-16.64,35.87-36.61,35.87H272.1c0,15.47-31.79,28.01-71.01,28.01
			c-39.22,0-71.01-12.54-71.01-28.01h-26.24c-19.97,0-36.2-15.99-36.61-35.87c-16.34-3.69-28.54-18.27-28.54-35.72
			c0,0-0.58-23.52-8.15-29.76c9.12-6.13,8.15-29.69,8.15-29.69c0-17.45,12.21-32.04,28.54-35.72c0.4-19.88,16.63-35.87,36.61-35.87
			h26.23c0-15.47,31.79-28.02,71.01-28.02c39.22,0,71.01,12.54,71.01,28.02h26.23c19.97,0,36.2,15.99,36.61,35.87
			c16.33,3.68,28.54,18.27,28.54,35.72c0,0,0.58,20.07,8.15,29.73C364.45,205.86,363.49,229.72,363.49,229.72z"/>
	</g>
</g>
</svg>
